<mxfile host="app.diagrams.net" agent="Mozilla/5.0 (Macintosh; Intel Mac OS X 10_15_7) AppleWebKit/605.1.15 (KHTML, like Gecko) Version/18.0.1 Safari/605.1.15" version="24.7.17">
  <diagram name="Page-1" id="CSJSGIS1LzkZytk3F4L5">
    <mxGraphModel dx="3250" dy="2093" grid="1" gridSize="10" guides="1" tooltips="1" connect="1" arrows="1" fold="1" page="1" pageScale="1" pageWidth="1920" pageHeight="1200" math="0" shadow="0">
      <root>
        <mxCell id="0" />
        <mxCell id="1" parent="0" />
        <mxCell id="hB7sJtixc7SgUdTs9786-3" value="Student" style="shape=umlActor;verticalLabelPosition=bottom;verticalAlign=top;html=1;outlineConnect=0;" parent="1" vertex="1">
          <mxGeometry x="-1470" y="430.15" width="60" height="100.03" as="geometry" />
        </mxCell>
        <mxCell id="hB7sJtixc7SgUdTs9786-5" value="" style="group" parent="1" vertex="1" connectable="0">
          <mxGeometry x="-1250" y="-20" width="1580" height="990" as="geometry" />
        </mxCell>
        <mxCell id="hB7sJtixc7SgUdTs9786-1" value="" style="rounded=0;whiteSpace=wrap;html=1;" parent="hB7sJtixc7SgUdTs9786-5" vertex="1">
          <mxGeometry y="90" width="670" height="670" as="geometry" />
        </mxCell>
        <mxCell id="hB7sJtixc7SgUdTs9786-2" value="&lt;font style=&quot;font-size: 30px;&quot;&gt;Hokie Guide Use Case Diagram&lt;/font&gt;" style="text;html=1;align=center;verticalAlign=middle;whiteSpace=wrap;rounded=0;" parent="hB7sJtixc7SgUdTs9786-5" vertex="1">
          <mxGeometry x="127.26999999999997" y="10.73" width="433.1" height="90" as="geometry" />
        </mxCell>
        <mxCell id="hB7sJtixc7SgUdTs9786-19" value="&lt;font style=&quot;font-size: 12px;&quot;&gt;Student Authentication via PID&lt;/font&gt;" style="ellipse;whiteSpace=wrap;html=1;" parent="hB7sJtixc7SgUdTs9786-5" vertex="1">
          <mxGeometry x="392.2699999999999" y="354.43" width="101.57" height="75.71" as="geometry" />
        </mxCell>
        <mxCell id="qvIvYTP-Vxzy6xqbFxnC-11" value="" style="group;fontStyle=4" parent="hB7sJtixc7SgUdTs9786-5" vertex="1" connectable="0">
          <mxGeometry x="26.970000000000056" y="163.56" width="103.03" height="55.71" as="geometry" />
        </mxCell>
        <mxCell id="qvIvYTP-Vxzy6xqbFxnC-15" value="" style="group" parent="qvIvYTP-Vxzy6xqbFxnC-11" vertex="1" connectable="0">
          <mxGeometry width="103.03" height="55.71" as="geometry" />
        </mxCell>
        <mxCell id="hB7sJtixc7SgUdTs9786-14" value="&lt;font style=&quot;font-size: 10px;&quot;&gt;Ai-powered Course Recommendation&lt;/font&gt;" style="ellipse;whiteSpace=wrap;html=1;" parent="qvIvYTP-Vxzy6xqbFxnC-15" vertex="1">
          <mxGeometry width="103.03" height="55.71" as="geometry" />
        </mxCell>
        <mxCell id="qvIvYTP-Vxzy6xqbFxnC-43" value="&lt;font style=&quot;font-size: 10px;&quot;&gt;Course Requirements Checker&lt;/font&gt;" style="ellipse;whiteSpace=wrap;html=1;" parent="hB7sJtixc7SgUdTs9786-5" vertex="1">
          <mxGeometry x="200" y="100.73" width="117.27" height="44.27" as="geometry" />
        </mxCell>
        <mxCell id="qvIvYTP-Vxzy6xqbFxnC-45" value="&lt;font style=&quot;font-size: 10px;&quot;&gt;Course Enrollment Status&lt;/font&gt;" style="ellipse;whiteSpace=wrap;html=1;" parent="hB7sJtixc7SgUdTs9786-5" vertex="1">
          <mxGeometry x="247.27000000000004" y="177.84" width="107.27" height="50" as="geometry" />
        </mxCell>
        <mxCell id="qvIvYTP-Vxzy6xqbFxnC-46" value="&lt;font style=&quot;font-size: 10px;&quot;&gt;Class Registration Reminders&lt;/font&gt;" style="ellipse;whiteSpace=wrap;html=1;" parent="hB7sJtixc7SgUdTs9786-5" vertex="1">
          <mxGeometry x="191.06" y="240" width="107.27" height="45.71" as="geometry" />
        </mxCell>
        <mxCell id="qvIvYTP-Vxzy6xqbFxnC-47" value="&lt;font style=&quot;font-size: 10px;&quot;&gt;Real-Time Waitlist Position Tracker&lt;/font&gt;" style="ellipse;whiteSpace=wrap;html=1;" parent="hB7sJtixc7SgUdTs9786-5" vertex="1">
          <mxGeometry x="257.27000000000004" y="290" width="110" height="45.71" as="geometry" />
        </mxCell>
        <mxCell id="qvIvYTP-Vxzy6xqbFxnC-48" value="&lt;font style=&quot;font-size: 10px;&quot;&gt;Drop/Withdrawal Deadline Notification&lt;/font&gt;" style="ellipse;whiteSpace=wrap;html=1;" parent="hB7sJtixc7SgUdTs9786-5" vertex="1">
          <mxGeometry x="105" y="340" width="130" height="55.71" as="geometry" />
        </mxCell>
        <mxCell id="qvIvYTP-Vxzy6xqbFxnC-71" value="&lt;font style=&quot;font-size: 10px;&quot;&gt;Personalized Class Schedule Retrieval&lt;/font&gt;" style="ellipse;whiteSpace=wrap;html=1;" parent="hB7sJtixc7SgUdTs9786-5" vertex="1">
          <mxGeometry x="330" y="130" width="130" height="47.84" as="geometry" />
        </mxCell>
        <mxCell id="qvIvYTP-Vxzy6xqbFxnC-72" value="&lt;font style=&quot;font-size: 10px;&quot;&gt;Personalized Calendar Sync&lt;/font&gt;" style="ellipse;whiteSpace=wrap;html=1;" parent="hB7sJtixc7SgUdTs9786-5" vertex="1">
          <mxGeometry x="390" y="219.27" width="120" height="49.99" as="geometry" />
        </mxCell>
        <mxCell id="qvIvYTP-Vxzy6xqbFxnC-74" value="&lt;font style=&quot;font-size: 10px;&quot;&gt;Exam Schedule Retrieval&lt;/font&gt;" style="ellipse;whiteSpace=wrap;html=1;" parent="hB7sJtixc7SgUdTs9786-5" vertex="1">
          <mxGeometry x="441.57" y="289.99999999999994" width="110" height="45.71" as="geometry" />
        </mxCell>
        <mxCell id="qvIvYTP-Vxzy6xqbFxnC-80" value="&lt;font style=&quot;font-size: 10px;&quot;&gt;Upcoming Assignment Tracker&lt;/font&gt;" style="ellipse;whiteSpace=wrap;html=1;" parent="hB7sJtixc7SgUdTs9786-5" vertex="1">
          <mxGeometry x="480" y="651.41" width="120" height="50" as="geometry" />
        </mxCell>
        <mxCell id="qvIvYTP-Vxzy6xqbFxnC-86" value="&lt;font style=&quot;font-size: 10px;&quot;&gt;Financial Aid Balance and Status&lt;/font&gt;" style="ellipse;whiteSpace=wrap;html=1;" parent="hB7sJtixc7SgUdTs9786-5" vertex="1">
          <mxGeometry x="421.57" y="471.08" width="130" height="47.84" as="geometry" />
        </mxCell>
        <mxCell id="qvIvYTP-Vxzy6xqbFxnC-87" value="&lt;font style=&quot;font-size: 10px;&quot;&gt;Tuition Balance Display&lt;/font&gt;" style="ellipse;whiteSpace=wrap;html=1;" parent="hB7sJtixc7SgUdTs9786-5" vertex="1">
          <mxGeometry x="530" y="340.00000000000006" width="120" height="49.99" as="geometry" />
        </mxCell>
        <mxCell id="qvIvYTP-Vxzy6xqbFxnC-88" value="&lt;font style=&quot;font-size: 10px;&quot;&gt;Scholarship Application Tracker&lt;/font&gt;" style="ellipse;whiteSpace=wrap;html=1;" parent="hB7sJtixc7SgUdTs9786-5" vertex="1">
          <mxGeometry x="290" y="701.4100000000001" width="110" height="45.71" as="geometry" />
        </mxCell>
        <mxCell id="qvIvYTP-Vxzy6xqbFxnC-91" value="&lt;font style=&quot;font-size: 10px;&quot;&gt;Scholarship Matching Tool&lt;/font&gt;" style="ellipse;whiteSpace=wrap;html=1;" parent="hB7sJtixc7SgUdTs9786-5" vertex="1">
          <mxGeometry x="470" y="530.38" width="120" height="50" as="geometry" />
        </mxCell>
        <mxCell id="qvIvYTP-Vxzy6xqbFxnC-98" value="&lt;font style=&quot;font-size: 10px;&quot;&gt;GPA Distribution Data&lt;/font&gt;" style="ellipse;whiteSpace=wrap;html=1;" parent="hB7sJtixc7SgUdTs9786-5" vertex="1">
          <mxGeometry x="50.0000000000001" y="580.37" width="130" height="47.84" as="geometry" />
        </mxCell>
        <mxCell id="qvIvYTP-Vxzy6xqbFxnC-99" value="&lt;font style=&quot;font-size: 10px;&quot;&gt;AI-Based Course Difficulty Estimator&lt;/font&gt;" style="ellipse;whiteSpace=wrap;html=1;" parent="hB7sJtixc7SgUdTs9786-5" vertex="1">
          <mxGeometry x="170" y="627.84" width="150" height="60" as="geometry" />
        </mxCell>
        <mxCell id="qvIvYTP-Vxzy6xqbFxnC-104" value="&lt;font style=&quot;font-size: 10px;&quot;&gt;Ai-Based Grade Prediction Tool&lt;/font&gt;" style="ellipse;whiteSpace=wrap;html=1;" parent="hB7sJtixc7SgUdTs9786-5" vertex="1">
          <mxGeometry x="10.000000000000114" y="677.83" width="120" height="50" as="geometry" />
        </mxCell>
        <mxCell id="qvIvYTP-Vxzy6xqbFxnC-112" value="&lt;font style=&quot;font-size: 10px;&quot;&gt;Professor Office Hours &amp;amp; Contact Info&lt;/font&gt;" style="ellipse;whiteSpace=wrap;html=1;" parent="hB7sJtixc7SgUdTs9786-5" vertex="1">
          <mxGeometry x="20.000000000000085" y="106.45" width="130" height="47.84" as="geometry" />
        </mxCell>
        <mxCell id="qvIvYTP-Vxzy6xqbFxnC-113" value="&lt;font style=&quot;font-size: 10px;&quot;&gt;Professor Review Aggregator&lt;/font&gt;" style="ellipse;whiteSpace=wrap;html=1;" parent="hB7sJtixc7SgUdTs9786-5" vertex="1">
          <mxGeometry x="272.2700000000001" y="410.15" width="120" height="49.99" as="geometry" />
        </mxCell>
        <mxCell id="qvIvYTP-Vxzy6xqbFxnC-114" value="&lt;font style=&quot;font-size: 10px;&quot;&gt;Appointment Scheduling with Advisors&lt;/font&gt;" style="ellipse;whiteSpace=wrap;html=1;" parent="hB7sJtixc7SgUdTs9786-5" vertex="1">
          <mxGeometry x="10.0000000000001" y="518.92" width="120" height="50" as="geometry" />
        </mxCell>
        <mxCell id="qvIvYTP-Vxzy6xqbFxnC-116" value="&lt;font style=&quot;font-size: 10px;&quot;&gt;Classroom Location Directions&lt;/font&gt;" style="ellipse;whiteSpace=wrap;html=1;" parent="hB7sJtixc7SgUdTs9786-5" vertex="1">
          <mxGeometry x="272.27" y="530.38" width="120" height="49.99" as="geometry" />
        </mxCell>
        <mxCell id="qvIvYTP-Vxzy6xqbFxnC-132" value="&lt;font style=&quot;font-size: 10px;&quot;&gt;AI-Powered Career Guidance&lt;/font&gt;" style="ellipse;whiteSpace=wrap;html=1;" parent="hB7sJtixc7SgUdTs9786-5" vertex="1">
          <mxGeometry x="127.26999999999998" y="450.00000000000006" width="120" height="50" as="geometry" />
        </mxCell>
        <mxCell id="qvIvYTP-Vxzy6xqbFxnC-134" value="&lt;font style=&quot;font-size: 10px;&quot;&gt;Ai-powered Study Group Suggestions&lt;/font&gt;" style="ellipse;whiteSpace=wrap;html=1;" parent="hB7sJtixc7SgUdTs9786-5" vertex="1">
          <mxGeometry x="373.84000000000015" y="577.85" width="120" height="49.99" as="geometry" />
        </mxCell>
        <mxCell id="zmE5umMrPIirgxl5zpid-3" value="VT Student Database" style="shape=umlActor;verticalLabelPosition=bottom;verticalAlign=top;html=1;outlineConnect=0;" vertex="1" parent="hB7sJtixc7SgUdTs9786-5">
          <mxGeometry x="720" y="360.11" width="60" height="100.03" as="geometry" />
        </mxCell>
        <mxCell id="zmE5umMrPIirgxl5zpid-5" style="rounded=0;orthogonalLoop=1;jettySize=auto;html=1;exitX=1;exitY=0.5;exitDx=0;exitDy=0;entryX=0.5;entryY=0.5;entryDx=0;entryDy=0;entryPerimeter=0;endArrow=none;endFill=0;" edge="1" parent="hB7sJtixc7SgUdTs9786-5" source="hB7sJtixc7SgUdTs9786-19" target="zmE5umMrPIirgxl5zpid-3">
          <mxGeometry relative="1" as="geometry" />
        </mxCell>
        <mxCell id="hB7sJtixc7SgUdTs9786-24" value="" style="endArrow=none;html=1;rounded=0;entryX=0;entryY=0.5;entryDx=0;entryDy=0;exitX=0.5;exitY=0.5;exitDx=0;exitDy=0;endFill=0;exitPerimeter=0;" parent="1" source="hB7sJtixc7SgUdTs9786-3" target="hB7sJtixc7SgUdTs9786-19" edge="1">
          <mxGeometry width="50" height="50" relative="1" as="geometry">
            <mxPoint x="-1610" y="440" as="sourcePoint" />
            <mxPoint x="-1340.909090909091" y="482.8571428571429" as="targetPoint" />
          </mxGeometry>
        </mxCell>
        <mxCell id="zmE5umMrPIirgxl5zpid-9" value="" style="endArrow=none;html=1;rounded=0;entryX=0;entryY=0.5;entryDx=0;entryDy=0;exitX=0.5;exitY=0.5;exitDx=0;exitDy=0;endFill=0;exitPerimeter=0;" edge="1" parent="1" source="hB7sJtixc7SgUdTs9786-3" target="qvIvYTP-Vxzy6xqbFxnC-112">
          <mxGeometry width="50" height="50" relative="1" as="geometry">
            <mxPoint x="-1810" y="490" as="sourcePoint" />
            <mxPoint x="-1304" y="448" as="targetPoint" />
          </mxGeometry>
        </mxCell>
        <mxCell id="qvIvYTP-Vxzy6xqbFxnC-44" value="" style="endArrow=none;html=1;rounded=0;entryX=0;entryY=1;entryDx=0;entryDy=0;endFill=0;exitX=0.5;exitY=0.5;exitDx=0;exitDy=0;exitPerimeter=0;" parent="1" source="hB7sJtixc7SgUdTs9786-3" target="qvIvYTP-Vxzy6xqbFxnC-43" edge="1">
          <mxGeometry width="50" height="50" relative="1" as="geometry">
            <mxPoint x="-1810" y="480" as="sourcePoint" />
            <mxPoint x="-1155.8" y="324.29" as="targetPoint" />
          </mxGeometry>
        </mxCell>
        <mxCell id="qvIvYTP-Vxzy6xqbFxnC-49" value="" style="endArrow=none;html=1;rounded=0;entryX=0;entryY=0.5;entryDx=0;entryDy=0;endFill=0;exitX=0.5;exitY=0.5;exitDx=0;exitDy=0;exitPerimeter=0;" parent="1" source="hB7sJtixc7SgUdTs9786-3" target="qvIvYTP-Vxzy6xqbFxnC-45" edge="1">
          <mxGeometry width="50" height="50" relative="1" as="geometry">
            <mxPoint x="-1411.56098" y="276.11517000000003" as="sourcePoint" />
            <mxPoint x="-1280" y="228" as="targetPoint" />
          </mxGeometry>
        </mxCell>
        <mxCell id="qvIvYTP-Vxzy6xqbFxnC-50" value="" style="endArrow=none;html=1;rounded=0;entryX=0;entryY=0.5;entryDx=0;entryDy=0;endFill=0;exitX=0.5;exitY=0.5;exitDx=0;exitDy=0;exitPerimeter=0;" parent="1" source="hB7sJtixc7SgUdTs9786-3" target="qvIvYTP-Vxzy6xqbFxnC-46" edge="1">
          <mxGeometry width="50" height="50" relative="1" as="geometry">
            <mxPoint x="-1410.5961" y="292.6405400000001" as="sourcePoint" />
            <mxPoint x="-1270" y="238" as="targetPoint" />
          </mxGeometry>
        </mxCell>
        <mxCell id="qvIvYTP-Vxzy6xqbFxnC-52" value="" style="endArrow=none;html=1;rounded=0;entryX=0;entryY=0.5;entryDx=0;entryDy=0;endFill=0;exitX=0.5;exitY=0.5;exitDx=0;exitDy=0;exitPerimeter=0;" parent="1" source="hB7sJtixc7SgUdTs9786-3" target="qvIvYTP-Vxzy6xqbFxnC-48" edge="1">
          <mxGeometry width="50" height="50" relative="1" as="geometry">
            <mxPoint x="-1426.98311478406" y="308.47840162236594" as="sourcePoint" />
            <mxPoint x="-1250" y="258" as="targetPoint" />
          </mxGeometry>
        </mxCell>
        <mxCell id="qvIvYTP-Vxzy6xqbFxnC-51" value="" style="endArrow=none;html=1;rounded=0;entryX=0;entryY=0.5;entryDx=0;entryDy=0;endFill=0;exitX=0.5;exitY=0.5;exitDx=0;exitDy=0;exitPerimeter=0;" parent="1" source="hB7sJtixc7SgUdTs9786-3" target="qvIvYTP-Vxzy6xqbFxnC-47" edge="1">
          <mxGeometry width="50" height="50" relative="1" as="geometry">
            <mxPoint x="-1442.79897" y="314.37723000000005" as="sourcePoint" />
            <mxPoint x="-1260" y="248" as="targetPoint" />
            <Array as="points">
              <mxPoint x="-1150" y="330" />
            </Array>
          </mxGeometry>
        </mxCell>
        <mxCell id="hB7sJtixc7SgUdTs9786-29" value="" style="endArrow=none;html=1;rounded=0;entryX=0;entryY=1;entryDx=0;entryDy=0;endFill=0;exitX=0.5;exitY=0.5;exitDx=0;exitDy=0;exitPerimeter=0;" parent="1" source="hB7sJtixc7SgUdTs9786-3" target="hB7sJtixc7SgUdTs9786-14" edge="1">
          <mxGeometry width="50" height="50" relative="1" as="geometry">
            <mxPoint x="-1910" y="485.72" as="sourcePoint" />
            <mxPoint x="-1575.8" y="238.58" as="targetPoint" />
          </mxGeometry>
        </mxCell>
        <mxCell id="zmE5umMrPIirgxl5zpid-11" value="" style="endArrow=none;html=1;rounded=0;entryX=0;entryY=0.5;entryDx=0;entryDy=0;endFill=0;exitX=0.5;exitY=0.5;exitDx=0;exitDy=0;exitPerimeter=0;" edge="1" parent="1" source="hB7sJtixc7SgUdTs9786-3" target="qvIvYTP-Vxzy6xqbFxnC-113">
          <mxGeometry width="50" height="50" relative="1" as="geometry">
            <mxPoint x="-1430" y="490" as="sourcePoint" />
            <mxPoint x="-1220" y="412" as="targetPoint" />
          </mxGeometry>
        </mxCell>
        <mxCell id="zmE5umMrPIirgxl5zpid-14" value="" style="endArrow=none;html=1;rounded=0;entryX=0;entryY=0.5;entryDx=0;entryDy=0;endFill=0;exitX=0.5;exitY=0.5;exitDx=0;exitDy=0;exitPerimeter=0;" edge="1" parent="1" source="hB7sJtixc7SgUdTs9786-3" target="qvIvYTP-Vxzy6xqbFxnC-132">
          <mxGeometry width="50" height="50" relative="1" as="geometry">
            <mxPoint x="-1430" y="490" as="sourcePoint" />
            <mxPoint x="-1170" y="485" as="targetPoint" />
          </mxGeometry>
        </mxCell>
        <mxCell id="zmE5umMrPIirgxl5zpid-15" value="" style="endArrow=none;html=1;rounded=0;entryX=0;entryY=0.5;entryDx=0;entryDy=0;endFill=0;exitX=0.5;exitY=0.5;exitDx=0;exitDy=0;exitPerimeter=0;" edge="1" parent="1" source="hB7sJtixc7SgUdTs9786-3" target="qvIvYTP-Vxzy6xqbFxnC-71">
          <mxGeometry width="50" height="50" relative="1" as="geometry">
            <mxPoint x="-1430" y="490" as="sourcePoint" />
            <mxPoint x="-1063" y="169" as="targetPoint" />
            <Array as="points">
              <mxPoint x="-1030" y="160" />
            </Array>
          </mxGeometry>
        </mxCell>
        <mxCell id="zmE5umMrPIirgxl5zpid-16" value="" style="endArrow=none;html=1;rounded=0;entryX=0;entryY=0.5;entryDx=0;entryDy=0;endFill=0;exitX=0.5;exitY=0.5;exitDx=0;exitDy=0;exitPerimeter=0;" edge="1" parent="1" source="hB7sJtixc7SgUdTs9786-3" target="qvIvYTP-Vxzy6xqbFxnC-72">
          <mxGeometry width="50" height="50" relative="1" as="geometry">
            <mxPoint x="-1430" y="490" as="sourcePoint" />
            <mxPoint x="-1089" y="293" as="targetPoint" />
            <Array as="points">
              <mxPoint x="-1150" y="320" />
              <mxPoint x="-1030" y="290" />
            </Array>
          </mxGeometry>
        </mxCell>
        <mxCell id="zmE5umMrPIirgxl5zpid-17" value="" style="endArrow=none;html=1;rounded=0;entryX=0;entryY=0.5;entryDx=0;entryDy=0;endFill=0;exitX=0.5;exitY=0.5;exitDx=0;exitDy=0;exitPerimeter=0;" edge="1" parent="1" source="hB7sJtixc7SgUdTs9786-3" target="qvIvYTP-Vxzy6xqbFxnC-74">
          <mxGeometry width="50" height="50" relative="1" as="geometry">
            <mxPoint x="-1430" y="490" as="sourcePoint" />
            <mxPoint x="-1220" y="412" as="targetPoint" />
            <Array as="points">
              <mxPoint x="-1040" y="390" />
            </Array>
          </mxGeometry>
        </mxCell>
        <mxCell id="zmE5umMrPIirgxl5zpid-18" value="" style="endArrow=none;html=1;rounded=0;entryX=0;entryY=0.5;entryDx=0;entryDy=0;endFill=0;exitX=0.5;exitY=0.5;exitDx=0;exitDy=0;exitPerimeter=0;" edge="1" parent="1" source="hB7sJtixc7SgUdTs9786-3" target="qvIvYTP-Vxzy6xqbFxnC-114">
          <mxGeometry width="50" height="50" relative="1" as="geometry">
            <mxPoint x="-1430" y="490" as="sourcePoint" />
            <mxPoint x="-1153" y="505" as="targetPoint" />
          </mxGeometry>
        </mxCell>
        <mxCell id="zmE5umMrPIirgxl5zpid-19" value="" style="endArrow=none;html=1;rounded=0;entryX=0;entryY=0.5;entryDx=0;entryDy=0;endFill=0;exitX=0.5;exitY=0.5;exitDx=0;exitDy=0;exitPerimeter=0;" edge="1" parent="1" source="hB7sJtixc7SgUdTs9786-3" target="qvIvYTP-Vxzy6xqbFxnC-98">
          <mxGeometry width="50" height="50" relative="1" as="geometry">
            <mxPoint x="-1430" y="490" as="sourcePoint" />
            <mxPoint x="-1230" y="565" as="targetPoint" />
          </mxGeometry>
        </mxCell>
        <mxCell id="zmE5umMrPIirgxl5zpid-20" value="" style="endArrow=none;html=1;rounded=0;entryX=0;entryY=0.5;entryDx=0;entryDy=0;endFill=0;exitX=0.5;exitY=0.5;exitDx=0;exitDy=0;exitPerimeter=0;" edge="1" parent="1" source="hB7sJtixc7SgUdTs9786-3" target="qvIvYTP-Vxzy6xqbFxnC-104">
          <mxGeometry width="50" height="50" relative="1" as="geometry">
            <mxPoint x="-1420" y="500" as="sourcePoint" />
            <mxPoint x="-1220" y="575" as="targetPoint" />
          </mxGeometry>
        </mxCell>
        <mxCell id="zmE5umMrPIirgxl5zpid-21" value="" style="endArrow=none;html=1;rounded=0;entryX=0;entryY=0.5;entryDx=0;entryDy=0;endFill=0;exitX=0.5;exitY=0.5;exitDx=0;exitDy=0;exitPerimeter=0;" edge="1" parent="1" source="hB7sJtixc7SgUdTs9786-3" target="qvIvYTP-Vxzy6xqbFxnC-99">
          <mxGeometry width="50" height="50" relative="1" as="geometry">
            <mxPoint x="-1410" y="510" as="sourcePoint" />
            <mxPoint x="-1210" y="585" as="targetPoint" />
            <Array as="points">
              <mxPoint x="-1270" y="640" />
            </Array>
          </mxGeometry>
        </mxCell>
        <mxCell id="zmE5umMrPIirgxl5zpid-22" value="" style="endArrow=none;html=1;rounded=0;entryX=0;entryY=0.5;entryDx=0;entryDy=0;endFill=0;exitX=0.5;exitY=0.5;exitDx=0;exitDy=0;exitPerimeter=0;" edge="1" parent="1" source="hB7sJtixc7SgUdTs9786-3" target="qvIvYTP-Vxzy6xqbFxnC-116">
          <mxGeometry width="50" height="50" relative="1" as="geometry">
            <mxPoint x="-1400" y="520" as="sourcePoint" />
            <mxPoint x="-1200" y="595" as="targetPoint" />
            <Array as="points">
              <mxPoint x="-1200" y="560" />
            </Array>
          </mxGeometry>
        </mxCell>
        <mxCell id="zmE5umMrPIirgxl5zpid-23" value="" style="endArrow=none;html=1;rounded=0;entryX=0;entryY=0.5;entryDx=0;entryDy=0;endFill=0;exitX=0.5;exitY=0.5;exitDx=0;exitDy=0;exitPerimeter=0;" edge="1" parent="1" source="hB7sJtixc7SgUdTs9786-3" target="qvIvYTP-Vxzy6xqbFxnC-134">
          <mxGeometry width="50" height="50" relative="1" as="geometry">
            <mxPoint x="-1390" y="530" as="sourcePoint" />
            <mxPoint x="-1190" y="605" as="targetPoint" />
            <Array as="points">
              <mxPoint x="-1150" y="630" />
              <mxPoint x="-1000" y="590" />
            </Array>
          </mxGeometry>
        </mxCell>
        <mxCell id="zmE5umMrPIirgxl5zpid-24" value="" style="endArrow=none;html=1;rounded=0;entryX=0;entryY=0.5;entryDx=0;entryDy=0;endFill=0;exitX=0.5;exitY=0.5;exitDx=0;exitDy=0;exitPerimeter=0;" edge="1" parent="1" source="hB7sJtixc7SgUdTs9786-3" target="qvIvYTP-Vxzy6xqbFxnC-88">
          <mxGeometry width="50" height="50" relative="1" as="geometry">
            <mxPoint x="-1380" y="540" as="sourcePoint" />
            <mxPoint x="-1180" y="615" as="targetPoint" />
            <Array as="points">
              <mxPoint x="-1160" y="650" />
            </Array>
          </mxGeometry>
        </mxCell>
        <mxCell id="zmE5umMrPIirgxl5zpid-25" value="" style="endArrow=none;html=1;rounded=0;entryX=0;entryY=0.5;entryDx=0;entryDy=0;endFill=0;exitX=0.5;exitY=0.5;exitDx=0;exitDy=0;exitPerimeter=0;" edge="1" parent="1" source="hB7sJtixc7SgUdTs9786-3" target="qvIvYTP-Vxzy6xqbFxnC-86">
          <mxGeometry width="50" height="50" relative="1" as="geometry">
            <mxPoint x="-1370" y="550" as="sourcePoint" />
            <mxPoint x="-1170" y="625" as="targetPoint" />
            <Array as="points">
              <mxPoint x="-1000" y="490" />
            </Array>
          </mxGeometry>
        </mxCell>
        <mxCell id="zmE5umMrPIirgxl5zpid-26" value="" style="endArrow=none;html=1;rounded=0;entryX=0;entryY=0.5;entryDx=0;entryDy=0;endFill=0;exitX=0.5;exitY=0.5;exitDx=0;exitDy=0;exitPerimeter=0;" edge="1" parent="1" source="hB7sJtixc7SgUdTs9786-3" target="qvIvYTP-Vxzy6xqbFxnC-91">
          <mxGeometry width="50" height="50" relative="1" as="geometry">
            <mxPoint x="-1360" y="560" as="sourcePoint" />
            <mxPoint x="-1160" y="635" as="targetPoint" />
            <Array as="points">
              <mxPoint x="-1050" y="500" />
              <mxPoint x="-850" y="500" />
            </Array>
          </mxGeometry>
        </mxCell>
        <mxCell id="zmE5umMrPIirgxl5zpid-27" value="" style="endArrow=none;html=1;rounded=0;entryX=0;entryY=0.5;entryDx=0;entryDy=0;endFill=0;exitX=0.5;exitY=0.5;exitDx=0;exitDy=0;exitPerimeter=0;" edge="1" parent="1" source="hB7sJtixc7SgUdTs9786-3" target="qvIvYTP-Vxzy6xqbFxnC-87">
          <mxGeometry width="50" height="50" relative="1" as="geometry">
            <mxPoint x="-1350" y="570" as="sourcePoint" />
            <mxPoint x="-1150" y="645" as="targetPoint" />
            <Array as="points">
              <mxPoint x="-810" y="320" />
            </Array>
          </mxGeometry>
        </mxCell>
        <mxCell id="zmE5umMrPIirgxl5zpid-28" value="" style="endArrow=none;html=1;rounded=0;entryX=0;entryY=0.5;entryDx=0;entryDy=0;endFill=0;exitX=0.5;exitY=0.5;exitDx=0;exitDy=0;exitPerimeter=0;" edge="1" parent="1" source="hB7sJtixc7SgUdTs9786-3" target="qvIvYTP-Vxzy6xqbFxnC-80">
          <mxGeometry width="50" height="50" relative="1" as="geometry">
            <mxPoint x="-1340" y="580" as="sourcePoint" />
            <mxPoint x="-1140" y="655" as="targetPoint" />
            <Array as="points">
              <mxPoint x="-1150" y="470" />
              <mxPoint x="-960" y="600" />
            </Array>
          </mxGeometry>
        </mxCell>
      </root>
    </mxGraphModel>
  </diagram>
</mxfile>
